<svg aria-hidden="true" style="position: absolute; width: 0; height: 0; overflow: hidden;" version="1.1" xmlns="http://www.w3.org/2000/svg" xmlns:xlink="http://www.w3.org/1999/xlink">
<defs>
<symbol id="icon-envelope" viewBox="0 0 39 32">
<path fill="currentColor" d="M35.692 2.433h-32c-2.036 0-3.692 1.656-3.692 3.691v22.146c0 2.035 1.656 3.691 3.692 3.691h32c2.036 0 3.692-1.656 3.692-3.691v-22.146c0-2.035-1.656-3.691-3.692-3.691zM35.692 4.894c0.167 0 0.326 0.035 0.472 0.095l-16.472 14.271-16.472-14.271c0.145-0.060 0.305-0.095 0.472-0.095h32zM35.692 29.501h-32c-0.679 0-1.231-0.551-1.231-1.23v-20.682l16.424 14.23c0.232 0.201 0.519 0.3 0.806 0.3s0.575-0.1 0.806-0.3l16.424-14.229v20.682c0 0.679-0.552 1.23-1.231 1.23z"></path>
</symbol>
<symbol id="icon-smartphone" viewBox="0 0 19 32">
<path fill="currentColor" d="M16 1.862h-13.176c-1.557 0-2.824 1.266-2.824 2.823v24.462c0 1.556 1.267 2.822 2.824 2.822h13.176c1.557 0 2.824-1.266 2.824-2.822v-24.462c0-1.556-1.267-2.823-2.824-2.823zM2.824 3.743h13.176c0.519 0 0.941 0.422 0.941 0.941v19.758h-15.059v-19.758c0-0.519 0.422-0.941 0.941-0.941zM16 30.087h-13.176c-0.519 0-0.941-0.422-0.941-0.941v-2.823h15.059v2.823c0 0.519-0.422 0.941-0.941 0.941z"></path>
<path fill="currentColor" d="M4.43 27.714c0.368 0.343 0.368 0.9 0 1.243s-0.963 0.343-1.331 0c-0.368-0.343-0.368-0.9 0-1.243s0.963-0.343 1.331 0z"></path>
</symbol>
</defs>
</svg>
